<?xml version="1.0" encoding="utf-8"?>
<!-- Generator: Adobe Illustrator 25.2.0, SVG Export Plug-In . SVG Version: 6.00 Build 0)  -->
<svg version="1.1" id="Capa_1" xmlns="http://www.w3.org/2000/svg" xmlns:xlink="http://www.w3.org/1999/xlink" x="0px" y="0px"
	 viewBox="0 0 486.7 486.7" style="enable-background:new 0 0 486.7 486.7;" xml:space="preserve">
<style type="text/css">
	.st0{fill:#FFFFFF;}
</style>
<g>
	<path class="st0" d="M449.7,389.6l-96-96c-26.5-26.5-44.5-60.1-52-96.8v0c14.1-47.4-1-105.5-43.5-148C200-9.3,112.7-16.6,63.6,32.6
		C14.4,81.8,21.7,169,79.8,227.1c42.5,42.5,100.6,57.7,147.9,43.6l0.1,0c36.7,7.5,70.3,25.6,96.8,52l96,96c8,8,21.1,8,29.1,0
		c3.9-3.9,6-9.1,6-14.5C455.7,398.6,453.5,393.4,449.7,389.6z M67.6,113.3h52.6v49.3H78.6C71,146.3,67.3,129.4,67.6,113.3z
		 M144.3,113.3l49.4,0l0,27.5c0,7.3,0,14.5,0,21.8l-49.4,0L144.3,113.3L144.3,113.3z M217.8,140.8l0-27.5h41.5
		c7.6,16.3,11.3,33.2,11,49.3h-52.5C217.8,155.3,217.8,148,217.8,140.8z M244.7,89.2h-27l0-27c5,3.8,9.9,7.9,14.5,12.5
		C236.8,79.3,240.9,84.2,244.7,89.2z M193.6,47.6l0,41.6l-49.3,0V36.6C160.4,36.3,177.3,40,193.6,47.6z M120.2,40.2v49h-49
		c3.5-11.5,9.6-22,18.3-30.7C98.2,49.8,108.7,43.8,120.2,40.2z M93.2,186.7h27v27c-5-3.8-9.9-7.9-14.5-12.5
		C101.1,196.5,97,191.7,93.2,186.7z M144.3,228.3v-41.6l49.5,0c0,18.3,0,36,0,52.6C177.6,239.6,160.6,235.9,144.3,228.3z
		 M217.9,235.6c0-15.5,0-32,0-48.9h48.8c-3.5,11.5-9.6,22-18.3,30.7C239.7,226,229.3,232,217.9,235.6z"/>
	<path class="st0" d="M232.3,318.7c-7.9-2.8-16.6-2.4-24.1,1.2l-1.3,0.6l27,57.1l1.3-0.6c15.8-7.5,22.5-26.3,15-42.1
		C246.6,327.4,240.2,321.6,232.3,318.7z"/>
	<polygon class="st0" points="179.6,333.4 206.6,390.5 221.2,383.6 194.2,326.5 	"/>
	<path class="st0" d="M38.6,353.9C38.6,353.9,38.6,353.9,38.6,353.9c-6.3,2.9,2.7,35,20,71.6c17.3,36.6,36.4,63.9,42.6,60.9v0
		l91.1-89.2l-27-57.1L38.6,353.9z"/>
</g>
</svg>
