<?xml version="1.0" encoding="utf-8"?>
<!-- Generator: Adobe Illustrator 25.2.0, SVG Export Plug-In . SVG Version: 6.00 Build 0)  -->
<svg version="1.1" id="svg2" xmlns="http://www.w3.org/2000/svg" xmlns:xlink="http://www.w3.org/1999/xlink" x="0px" y="0px"
	 viewBox="0 0 222 222" style="enable-background:new 0 0 222 222;" xml:space="preserve">
<style type="text/css">
	.st0{fill:#CCCCCC;}
	.st1{fill:#FFFFFF;}
</style>
<g>
	<path id="path5715" class="st0" d="M128.5,0.7l-0.1,48.8l-0.1,48.8l-4-11.3l0,0l-5.2,108.7c5.1,14.4,7.8,22.1,7.9,22.2
		c0,0,2.9,0.2,6.5,0.4c10.6,0.5,23.8,1.7,33.9,2.9c2.3,0.3,4.3,0.4,4.4,0.3c0.1-0.1,0.2-49.8,0.1-110.5L171.8,0.7H128.5z"/>
	<path id="path5717" class="st0" d="M50.1,0.5v110.4c0,60.7,0.1,110.5,0.1,110.6s3.8-0.3,8.4-0.8c4.5-0.5,10.8-1.1,13.9-1.4
		c4.8-0.4,19.1-1.3,20.7-1.3c0.5,0,0.5-2.5,0.6-46.8l0.1-46.8l3.5,9.8c0.5,1.5,0.7,2,1.2,3.5L103.8,29c-1.1-3.1-0.5-1.5-1.8-5
		c-4.2-12-7.8-22.2-8-22.6l-0.3-0.8L50.1,0.5L50.1,0.5z"/>
	<path id="path5721" class="st1" d="M50.1,0.5l43.8,124v-0.1l3.5,9.8c19.2,54.4,29.5,83.6,29.6,83.6c0,0,2.9,0.2,6.5,0.4
		c10.6,0.5,23.8,1.7,33.9,2.9c2.3,0.3,4.3,0.4,4.4,0.3L128.3,98.3l0,0l-4-11.3c-3.9-11.1-6.5-18.5-22.3-63.1
		c-4.2-12-7.8-22.2-8-22.6l-0.3-0.8H71.9C71.9,0.5,50.1,0.5,50.1,0.5z"/>
</g>
</svg>
