<svg width="33" height="47" viewBox="0 0 33 47" fill="none" xmlns="http://www.w3.org/2000/svg">
<path d="M23.6838 18.0894C20.7 18.0894 18.2731 20.518 18.2731 23.5C18.2731 26.4819 20.7018 28.9106 23.6838 28.9106H23.8675C26.8512 28.9106 29.2781 26.482 29.2781 23.5C29.2781 20.5181 26.8494 18.0894 23.8675 18.0894H23.6838ZM23.6838 18.0894H23.8656H23.6838ZM15.0131 18.0894H15.015V23.3183C15.0138 23.3787 15.0131 23.4393 15.0131 23.5C15.0131 23.5607 15.0138 23.6213 15.015 23.6817V28.9106H9.42062C6.4387 28.9106 4.01 26.4819 4.01 23.5C4.01 20.518 6.43687 18.0894 9.42062 18.0894H15.0131ZM0.751875 23.5C0.751875 26.3962 2.17899 28.9649 4.36705 30.54C2.17793 32.1148 0.75 34.6842 0.75 37.5812C0.75 42.3632 4.66202 46.25 9.46563 46.25C14.3199 46.25 18.2712 42.3218 18.2712 37.4894V32.1687H18.2731V31.9187V30.2702C19.7567 31.4578 21.6377 32.1687 23.6819 32.1687H23.8656C28.6462 32.1687 32.5344 28.2806 32.5344 23.5C32.5344 20.6037 31.1072 18.035 28.9191 16.46C31.1072 14.8844 32.5344 12.315 32.5344 9.41875C32.5344 4.63818 28.6462 0.75 23.8656 0.75H18.2731H18.0231H15.2631H15.0131H9.42062C4.63998 0.75 0.751875 4.64013 0.751875 9.42062C0.751875 12.3167 2.17883 14.8853 4.36668 16.4603C2.17883 18.0353 0.751875 20.6039 0.751875 23.5ZM15.0131 4.00812V14.8312H9.42062C6.43698 14.8312 4.01 12.4008 4.01 9.41875C4.01 6.43677 6.43687 4.00812 9.42062 4.00812H15.0131ZM9.42096 32.1687H15.0169V37.4875C15.0169 40.52 12.5283 42.99 9.4675 42.99C6.45556 42.99 4.01008 40.5613 4.01 37.5795C4.01194 36.1451 4.58263 34.77 5.59693 33.7557C6.61127 32.7413 7.98646 32.1706 9.42096 32.1687ZM23.6819 14.8312H18.2731V4.01H23.8656C26.8476 4.01 29.2763 6.4387 29.2763 9.42062C29.2763 12.4026 26.8494 14.8312 23.8656 14.8312H23.6819Z" fill="#E9EEF7" stroke="#E9EEF7" stroke-width="0.5"/>
</svg>
