<svg width="46" height="50" viewBox="0 0 46 50" fill="none" xmlns="http://www.w3.org/2000/svg">
<path d="M29.8625 41.1083C29.3521 41.4542 28.7563 41.6667 28.125 41.6667H17.7084C17.0771 41.6667 16.4813 41.4542 15.9688 41.1083L14.6813 46.0938C14.6167 46.3521 14.5834 46.6146 14.5834 46.875C14.5834 48.5979 15.9854 50 17.7084 50H28.125C29.8479 50 31.25 48.5979 31.25 46.875C31.25 46.6146 31.2167 46.3521 31.15 46.0917L29.8625 41.1083ZM23.8063 8.83125C23.4271 8.2125 22.4063 8.2125 22.0271 8.83125L10.5688 27.5813C10.3667 27.9125 10.3646 28.3271 10.5646 28.6604L16.8146 39.0771C17.0042 39.3917 17.3417 39.5833 17.7084 39.5833H28.125C28.4917 39.5833 28.8292 39.3917 29.0188 39.0771L35.2688 28.6604C35.4688 28.3271 35.4667 27.9125 35.2646 27.5813L23.8063 8.83125ZM22.9167 31.25C20.6146 31.25 18.75 29.3854 18.75 27.0833C18.75 24.7813 20.6146 22.9167 22.9167 22.9167C25.2188 22.9167 27.0834 24.7813 27.0834 27.0833C27.0834 29.3854 25.2188 31.25 22.9167 31.25Z" fill="#E9EEF7"/>
<path d="M42.7083 0C41.35 0 40.2042 0.872917 39.775 2.08333H26.0417V1.04167C26.0417 0.466667 25.575 0 25 0H20.8333C20.2583 0 19.7917 0.466667 19.7917 1.04167V2.08333H6.05833C5.62917 0.872917 4.48333 0 3.125 0C1.4 0 0 1.4 0 3.125C0 4.85 1.4 6.25 3.125 6.25C4.48333 6.25 5.62917 5.37708 6.05833 4.16667H14.9333C10.6625 6.5125 7.55625 10.6687 6.60417 15.625H5.20833C4.63333 15.625 4.16667 16.0917 4.16667 16.6667V20.8333C4.16667 21.4083 4.63333 21.875 5.20833 21.875H9.375C9.95 21.875 10.4167 21.4083 10.4167 20.8333V16.6667C10.4167 16.0917 9.95 15.625 9.375 15.625H8.72917C9.95208 10.0875 14.2729 5.76667 19.7917 4.56042V5.20833C19.7917 5.78333 20.2583 6.25 20.8333 6.25H25C25.575 6.25 26.0417 5.78333 26.0417 5.20833V4.56042C31.5604 5.76667 35.8813 10.0875 37.1042 15.625H36.4583C35.8833 15.625 35.4167 16.0917 35.4167 16.6667V20.8333C35.4167 21.4083 35.8833 21.875 36.4583 21.875H40.625C41.2 21.875 41.6667 21.4083 41.6667 20.8333V16.6667C41.6667 16.0917 41.2 15.625 40.625 15.625H39.2292C38.2771 10.6687 35.1708 6.5125 30.9 4.16667H39.775C40.2063 5.37708 41.35 6.25 42.7083 6.25C44.4333 6.25 45.8333 4.85 45.8333 3.125C45.8333 1.4 44.4333 0 42.7083 0Z" fill="#E9EEF7"/>
</svg>
