<svg width="37" height="33" viewBox="0 0 37 33" fill="none" xmlns="http://www.w3.org/2000/svg">
<path d="M19.1367 24.3783L21.778 31.9832C21.869 32.1654 22.0057 32.2564 22.2333 32.2564H27.3337C27.6069 32.2564 27.6524 32.1198 27.6069 31.8466L17.0875 2.61089C17.042 2.3832 16.9964 2.33766 16.7687 2.33766H10.4389C10.2567 2.33766 10.1657 2.47427 10.1657 2.65643C10.0746 4.20473 9.93796 4.66012 9.75581 5.1155L0.37486 31.801C0.329322 32.1198 0.420399 32.2564 0.693629 32.2564H5.2475C5.52073 32.2564 5.65735 32.1654 5.74842 31.8921L8.25304 24.3783H19.1367ZM9.71027 19.4146C11.0764 15.2706 12.898 9.94258 13.6266 6.8915H13.6721C14.5829 10.0792 16.7232 16.409 17.6795 19.4146H9.71027ZM30.945 31.8466C30.945 32.1198 31.0817 32.2564 31.4004 32.2564H36.0909C36.4097 32.2564 36.5007 32.1654 36.5007 31.8921V10.1247C36.5007 9.8515 36.4097 9.80597 36.1364 9.80597H31.3093C31.0817 9.80597 30.945 9.89704 30.945 10.1247V31.8466ZM33.7229 6.75489C35.6355 6.75489 36.865 5.47981 36.865 3.61274C36.865 1.7912 35.7266 0.470581 33.7684 0.470581C31.9469 0.470581 30.6263 1.74566 30.6263 3.61274C30.6263 5.47981 31.8558 6.75489 33.7229 6.75489Z" fill="#E9EEF7"/>
</svg>
