<svg width="40" height="40" viewBox="0 0 40 40" fill="none" xmlns="http://www.w3.org/2000/svg">
<path d="M9.76087 5.45888V26.388C9.76062 26.4379 9.74875 26.4871 9.72619 26.5316C9.70364 26.5762 9.67104 26.6149 9.63095 26.6446C9.59087 26.6744 9.5444 26.6944 9.49524 26.7031C9.44608 26.7118 9.39557 26.7089 9.34771 26.6947C8.64391 26.4936 7.91543 26.3919 7.18345 26.3926C3.21614 26.3926 0 29.3057 0 32.8993C0 36.4929 3.21614 39.406 7.1835 39.406C9.90997 39.406 12.637 37.924 13.7704 35.3973C14.7555 33.2013 14.3669 30.5615 14.3669 28.2064V21.5856C14.3669 18.7245 14.3669 14.0449 14.3669 11.1839C14.3671 11.0632 14.4082 10.9462 14.4834 10.8519C14.5586 10.7576 14.6635 10.6916 14.7811 10.6645L34.687 7.97056C34.7655 7.95212 34.847 7.95162 34.9257 7.9691C35.0044 7.98657 35.0781 8.02158 35.1413 8.0715C35.2045 8.12143 35.2557 8.18498 35.291 8.25743C35.3262 8.32988 35.3447 8.40936 35.345 8.48993V25.631C35.3447 25.6809 35.3328 25.7301 35.3103 25.7747C35.2877 25.8192 35.2551 25.8579 35.215 25.8877C35.175 25.9174 35.1285 25.9374 35.0793 25.9461C35.0302 25.9548 34.9797 25.952 34.9318 25.9378C34.228 25.7366 33.4995 25.6349 32.7675 25.6356C28.8002 25.6356 25.5841 28.5487 25.5841 32.1423C25.5841 35.7359 28.8002 38.649 32.7675 38.649C35.1683 38.649 37.584 37.6832 38.9304 35.6498C40.2352 33.6794 39.9801 31.6095 39.9794 29.3832C39.9782 25.4127 39.9782 21.4421 39.9794 17.4715V1.5979C39.9786 1.35834 39.9242 1.12201 39.8203 0.906192C39.7163 0.690379 39.5654 0.500557 39.3785 0.35063C39.1917 0.200703 38.9737 0.0944686 38.7405 0.0397087C38.5073 -0.0150513 37.6841 -0.0113904 37.45 0.0397112L11.2017 3.68173C10.7945 3.76857 10.4294 3.99232 10.1672 4.31571C9.90506 4.63909 9.76164 5.04257 9.76087 5.45888Z" fill="#E9EEF7"/>
</svg>
