<svg width="45" height="45" viewBox="0 0 45 45" fill="none" xmlns="http://www.w3.org/2000/svg">
<path d="M18.4091 8.18182C18.0045 8.18182 17.6091 8.30178 17.2727 8.52654C16.9363 8.7513 16.6742 9.07075 16.5193 9.44451C16.3645 9.81827 16.324 10.2295 16.4029 10.6263C16.4819 11.0231 16.6767 11.3876 16.9627 11.6736C17.2488 11.9597 17.6133 12.1545 18.01 12.2334C18.4068 12.3123 18.8181 12.2718 19.1919 12.117C19.5656 11.9622 19.8851 11.7 20.1098 11.3637C20.3346 11.0273 20.4545 10.6318 20.4545 10.2273C20.4545 9.68478 20.239 9.16452 19.8554 8.78092C19.4718 8.39732 18.9516 8.18182 18.4091 8.18182ZM10.2273 8.18182C9.82272 8.18182 9.42725 8.30178 9.09088 8.52654C8.75451 8.7513 8.49233 9.07075 8.33752 9.44451C8.1827 9.81827 8.1422 10.2295 8.22112 10.6263C8.30004 11.0231 8.49486 11.3876 8.78092 11.6736C9.06698 11.9597 9.43144 12.1545 9.82822 12.2334C10.225 12.3123 10.6363 12.2718 11.01 12.117C11.3838 11.9622 11.7032 11.7 11.928 11.3637C12.1528 11.0273 12.2727 10.6318 12.2727 10.2273C12.2727 9.68478 12.0572 9.16452 11.6736 8.78092C11.29 8.39732 10.7698 8.18182 10.2273 8.18182ZM26.5909 8.18182C26.1864 8.18182 25.7909 8.30178 25.4545 8.52654C25.1181 8.7513 24.856 9.07075 24.7012 9.44451C24.5463 9.81827 24.5058 10.2295 24.5848 10.6263C24.6637 11.0231 24.8585 11.3876 25.1446 11.6736C25.4306 11.9597 25.7951 12.1545 26.1919 12.2334C26.5886 12.3123 26.9999 12.2718 27.3737 12.117C27.7474 11.9622 28.0669 11.7 28.2916 11.3637C28.5164 11.0273 28.6364 10.6318 28.6364 10.2273C28.6364 9.68478 28.4209 9.16452 28.0373 8.78092C27.6537 8.39732 27.1334 8.18182 26.5909 8.18182ZM38.8636 0H6.13636C4.5089 0 2.94809 0.646508 1.7973 1.7973C0.646508 2.94809 0 4.5089 0 6.13636V38.8636C0 40.4911 0.646508 42.0519 1.7973 43.2027C2.94809 44.3535 4.5089 45 6.13636 45H38.8636C40.4911 45 42.0519 44.3535 43.2027 43.2027C44.3535 42.0519 45 40.4911 45 38.8636V6.13636C45 4.5089 44.3535 2.94809 43.2027 1.7973C42.0519 0.646508 40.4911 0 38.8636 0V0ZM40.9091 38.8636C40.9091 39.4061 40.6936 39.9264 40.31 40.31C39.9264 40.6936 39.4061 40.9091 38.8636 40.9091H6.13636C5.59388 40.9091 5.07361 40.6936 4.69001 40.31C4.30641 39.9264 4.09091 39.4061 4.09091 38.8636V20.4545H40.9091V38.8636ZM40.9091 16.3636H4.09091V6.13636C4.09091 5.59388 4.30641 5.07361 4.69001 4.69001C5.07361 4.30641 5.59388 4.09091 6.13636 4.09091H38.8636C39.4061 4.09091 39.9264 4.30641 40.31 4.69001C40.6936 5.07361 40.9091 5.59388 40.9091 6.13636V16.3636Z" fill="#E9EEF7"/>
</svg>
