<?xml version="1.0" encoding="utf-8"?>
<!-- Generator: Adobe Illustrator 25.2.0, SVG Export Plug-In . SVG Version: 6.00 Build 0)  -->
<svg version="1.1" id="Camada_1" xmlns="http://www.w3.org/2000/svg" xmlns:xlink="http://www.w3.org/1999/xlink" x="0px" y="0px"
	 viewBox="0 0 100 82.4" style="enable-background:new 0 0 100 82.4;" xml:space="preserve">
<style type="text/css">
	.st0{fill:#FFFFFF;}
</style>
<path class="st0" d="M92.2,37.8c-2.4-2.4-5.2-4.3-8.3-5.6c-3.2-1.4-6.6-2.1-10.2-2.1H26.1c-3.5,0-6.9,0.7-10.2,2.1
	c-3.1,1.3-5.9,3.2-8.3,5.6c-2.4,2.4-4.3,5.2-5.6,8.3C0.7,49.4,0,52.8,0,56.3c0,3.5,0.7,6.9,2.1,10.2c1.3,3.1,3.2,5.9,5.6,8.3
	c2.4,2.4,5.2,4.3,8.3,5.6c3.2,1.4,6.6,2.1,10.2,2.1c4.1,0,8.2-1,11.9-2.8c2.4-1.2,4.7-2.9,6.6-4.9h10.6c1.9,2,4.2,3.6,6.6,4.9
	c3.6,1.9,7.7,2.8,11.9,2.8c3.5,0,6.9-0.7,10.2-2.1c3.1-1.3,5.9-3.2,8.3-5.6c2.4-2.4,4.3-5.2,5.6-8.3c1.4-3.2,2.1-6.6,2.1-10.2
	c0-3.5-0.7-6.9-2.1-10.2C96.4,43,94.6,40.2,92.2,37.8z M73.7,75.5c-6.3,0-11.9-3-15.4-7.7H41.5c-3.5,4.7-9.1,7.7-15.4,7.7
	c-10.6,0-19.2-8.6-19.2-19.2C6.8,45.7,15.5,37,26.1,37h47.6C84.3,37,93,45.7,93,56.3C93,66.9,84.3,75.5,73.7,75.5z"/>
<circle class="st0" cx="73.7" cy="64" r="3.8"/>
<circle class="st0" cx="81.4" cy="56.3" r="3.8"/>
<circle class="st0" cx="66" cy="56.3" r="3.8"/>
<circle class="st0" cx="73.7" cy="48.6" r="3.8"/>
<path class="st0" d="M35.7,52.4h-5.8v-5.8c0-1.1-0.9-1.9-1.9-1.9h-3.9c-1.1,0-1.9,0.9-1.9,1.9v5.8h-5.8c-1.1,0-1.9,0.9-1.9,1.9v3.9
	c0,1.1,0.9,1.9,1.9,1.9h5.8v5.8c0,1.1,0.9,1.9,1.9,1.9H28c1.1,0,1.9-0.9,1.9-1.9v-5.8h5.8c1.1,0,1.9-0.9,1.9-1.9v-3.8
	C37.6,53.3,36.8,52.4,35.7,52.4z"/>
<path class="st0" d="M64.1,17.6h18.4C92.1,17.6,100,9.7,100,0h-6.8c0,5.9-4.8,10.7-10.7,10.7H64.1c-9.7,0-17.6,7.9-17.6,17.6h6.8
	C53.3,22.4,58.1,17.6,64.1,17.6z"/>
</svg>
