<?xml version="1.0" encoding="utf-8"?>
<!-- Generator: Adobe Illustrator 25.2.0, SVG Export Plug-In . SVG Version: 6.00 Build 0)  -->
<svg version="1.1" id="Layer_1" xmlns="http://www.w3.org/2000/svg" xmlns:xlink="http://www.w3.org/1999/xlink" x="0px" y="0px"
	 viewBox="0 0 82.1 122.9" style="enable-background:new 0 0 82.1 122.9;" xml:space="preserve">
<style type="text/css">
	.st0{fill:#FFFFFF;}
</style>
<path class="st0" d="M59.9,20.8v31.5c0,27-37.7,27-37.7,0V20.8C22.2-6.9,59.9-6.9,59.9,20.8z M45.7,96.8v21.4
	c-0.1,2.6-2.3,4.6-4.9,4.5c-2.4-0.1-4.4-2-4.5-4.5V96.8c-4.3-0.5-8.5-1.7-12.5-3.5c-4.4-2-8.4-4.8-11.8-8.3L12,84.9
	c-3.8-3.8-6.8-8.3-8.9-13.2C1.1,66.7,0,61.4,0,56c0-2.6,2.1-4.7,4.6-4.7c1.3,0,2.5,0.5,3.4,1.4l0.1,0.1c0.8,0.9,1.3,2,1.3,3.2
	c0,4.1,0.8,8.2,2.4,12.1C15,75.8,21.2,82,29,85.3c7.7,3.2,16.4,3.2,24.1,0c3.8-1.6,7.3-3.9,10.3-6.9l0.1-0.1
	c2.9-2.9,5.2-6.4,6.8-10.2c1.6-3.8,2.4-7.9,2.4-12.1c0.1-2.6,2.3-4.6,4.9-4.5c2.4,0.1,4.4,2,4.5,4.5c0,5.4-1.1,10.7-3.1,15.7
	c-2.1,5-5.1,9.5-8.9,13.3l-0.1,0.1c-3.4,3.4-7.4,6.2-11.8,8.2C54.2,95.1,50,96.3,45.7,96.8L45.7,96.8z"/>
</svg>
