<svg width="38" height="30" viewBox="0 0 38 30" fill="none" xmlns="http://www.w3.org/2000/svg">
<path d="M0 28.4042C0 28.622 0.130694 28.7091 0.348518 28.7091H4.92281C5.1842 28.7091 5.27133 28.5784 5.27133 28.3606V19.4299C6.27332 19.4299 6.62184 19.4299 8.01591 19.4299C14.5942 19.4299 19.9526 16.4239 19.9526 9.49711C19.9526 4.70499 16.816 0 8.36442 0C5.1842 0 1.96041 0.0871308 0.304953 0.130696C0.0871294 0.130696 0 0.261386 0 0.479214V28.4042ZM5.27133 4.66143C5.75054 4.61786 6.97035 4.5743 8.49512 4.5743C12.5031 4.5743 14.7684 6.44758 14.7684 9.6278C14.7684 13.5922 11.6753 14.812 8.01591 14.812C6.57827 14.812 6.01193 14.812 5.27133 14.7684V4.66143ZM36.4317 12.2852C36.6931 12.3724 36.8238 12.2417 36.8238 12.0239V8.19017C36.8238 7.97234 36.7802 7.79808 36.5624 7.66739C35.5168 7.14461 33.6 6.7961 31.0732 6.7961C25.6276 6.7961 22.9266 9.88919 22.9266 13.2001C22.9266 16.3368 24.6256 18.2972 29.3742 20.0398C32.0752 21.1289 32.9029 21.8259 32.9029 22.915C32.9029 24.0477 31.8138 24.8319 29.5484 24.8319C27.588 24.8319 25.192 24.3091 23.3187 23.0893C23.1444 23.0022 22.9702 23.0893 22.9702 23.3071V27.4458C22.9702 27.7072 23.0573 27.7943 23.2751 27.925C24.5821 28.6656 26.8474 29.1448 29.4178 29.1448C34.7762 29.1448 38 26.5745 38 22.4794C38 19.3863 36.301 17.4259 31.3346 15.5962C28.5465 14.507 27.893 13.8536 27.893 12.8952C27.893 11.9803 28.6772 11.0219 30.9861 11.0219C32.9029 11.0219 35.0812 11.5446 36.4317 12.2852Z" fill="#E9EEF7"/>
</svg>
