<svg id="Layer_1" data-name="Layer 1" xmlns="http://www.w3.org/2000/svg" viewBox="0 0 38.75 38.52"><defs><style>.cls-1{fill:#ccc;}.cls-2{fill:#fff;}.cls-3{fill:#e5e5e5;}</style></defs><path class="cls-1" d="M42.9,9.54l-8-3.84a2.39,2.39,0,0,0-2.75.47L6.05,30a1.62,1.62,0,0,0-.11,2.28l.11.1L8.18,34.3a1.62,1.62,0,0,0,2.06.09L41.7,10.53a1.6,1.6,0,0,1,2.57,1.28v-.09A2.41,2.41,0,0,0,42.9,9.54Z" transform="translate(-5.53 -5.46)"/><path class="cls-2" d="M42.9,39.9l-8,3.84a2.41,2.41,0,0,1-2.75-.47L6.05,19.46a1.62,1.62,0,0,1-.11-2.28l.11-.11,2.13-1.93a1.61,1.61,0,0,1,2.07-.09L41.7,38.9A1.6,1.6,0,0,0,44,38.59a1.56,1.56,0,0,0,.32-1v.1A2.41,2.41,0,0,1,42.9,39.9Z" transform="translate(-5.53 -5.46)"/><path class="cls-3" d="M34.92,43.74a2.41,2.41,0,0,1-2.75-.47,1.42,1.42,0,0,0,2.42-1V7.17a1.42,1.42,0,0,0-1.42-1.42,1.38,1.38,0,0,0-1,.42,2.39,2.39,0,0,1,2.75-.47l8,3.83a2.41,2.41,0,0,1,1.37,2.18v26a2.42,2.42,0,0,1-1.37,2.18Z" transform="translate(-5.53 -5.46)"/></svg>